<?xml version="1.0" encoding="UTF-8" standalone="no"?>
<!-- Created with Inkscape (http://www.inkscape.org/) -->

<svg
   xmlns:dc="http://purl.org/dc/elements/1.1/"
   xmlns:cc="http://creativecommons.org/ns#"
   xmlns:rdf="http://www.w3.org/1999/02/22-rdf-syntax-ns#"
   xmlns:svg="http://www.w3.org/2000/svg"
   xmlns="http://www.w3.org/2000/svg"
   xmlns:sodipodi="http://sodipodi.sourceforge.net/DTD/sodipodi-0.dtd"
   xmlns:inkscape="http://www.inkscape.org/namespaces/inkscape"
   version="1.1"
   id="svg2"
   xml:space="preserve"
   width="851.32544"
   height="370.51199"
   viewBox="0 0 851.32544 370.51199"
   sodipodi:docname="logo-header.svg"
   inkscape:export-filename="/home/zaqueo/dev/buenaventura/lib/frontend/site/home-multiforum/assets/logo-central-home.png"
   inkscape:export-xdpi="45.02"
   inkscape:export-ydpi="45.02"
   inkscape:version="0.92.3 (2405546, 2018-03-11)"><metadata
     id="metadata8"><rdf:RDF><cc:Work
         rdf:about=""><dc:format>image/svg+xml</dc:format><dc:type
           rdf:resource="http://purl.org/dc/dcmitype/StillImage" /><dc:title></dc:title></cc:Work></rdf:RDF></metadata><defs
     id="defs6"><clipPath
       clipPathUnits="userSpaceOnUse"
       id="clipPath18"><path
         d="M 0,389 H 759 V 0 H 0 Z"
         id="path16"
         inkscape:connector-curvature="0" /></clipPath></defs><sodipodi:namedview
     pagecolor="#ffffff"
     bordercolor="#666666"
     borderopacity="1"
     objecttolerance="10"
     gridtolerance="10"
     guidetolerance="10"
     inkscape:pageopacity="0"
     inkscape:pageshadow="2"
     inkscape:window-width="1920"
     inkscape:window-height="1052"
     id="namedview4"
     showgrid="false"
     fit-margin-top="0"
     fit-margin-left="0"
     fit-margin-right="0"
     fit-margin-bottom="0"
     inkscape:zoom="3.2094862"
     inkscape:cx="829.749"
     inkscape:cy="-60.384991"
     inkscape:window-x="0"
     inkscape:window-y="0"
     inkscape:window-maximized="1"
     inkscape:current-layer="g10" /><g
     id="g10"
     inkscape:groupmode="layer"
     inkscape:label="LogoActivaBuenaventura"
     transform="matrix(1.3333333,0,0,-1.3333333,-86.453331,495.84532)"><g
       id="g12"><g
         id="g14"
         clip-path="url(#clipPath18)"><g
           id="g20"
           transform="translate(356.5576,284.3276)"><path
             d="m 0,0 c -3.463,-3.935 -7.631,-6.923 -12.508,-8.968 -4.879,-2.045 -9.991,-3.068 -15.34,-3.068 -4.956,0 -9.635,0.905 -14.037,2.714 -4.402,1.809 -8.224,4.307 -11.466,7.493 -3.241,3.186 -5.8,6.98 -7.675,11.387 -1.875,4.404 -2.812,9.163 -2.812,14.278 0,5.033 0.937,9.735 2.812,14.101 1.875,4.366 4.414,8.16 7.618,11.387 3.203,3.225 7.005,5.761 11.406,7.611 4.4,1.847 9.119,2.773 14.154,2.773 5.192,0 10.128,-0.944 14.809,-2.832 4.68,-1.888 8.751,-4.761 12.213,-8.614 L -12.271,36.58 c -1.732,2.281 -3.835,4.169 -6.314,5.664 -2.477,1.493 -5.487,2.242 -9.027,2.242 -2.596,0 -5.055,-0.551 -7.375,-1.652 -2.322,-1.103 -4.366,-2.578 -6.136,-4.425 -1.77,-1.849 -3.167,-4.033 -4.189,-6.549 -1.023,-2.519 -1.534,-5.192 -1.534,-8.024 0,-2.832 0.511,-5.507 1.534,-8.024 1.022,-2.519 2.399,-4.702 4.13,-6.549 1.73,-1.849 3.776,-3.325 6.136,-4.425 2.36,-1.103 4.838,-1.652 7.434,-1.652 3.382,0 6.45,0.806 9.204,2.419 2.753,1.611 4.956,3.676 6.608,6.195 z"
             style="fill:#6e4490;fill-opacity:1;fill-rule:nonzero;stroke:none"
             id="path22"
             inkscape:connector-curvature="0" /></g><g
           id="g24"
           transform="translate(402.9316,275.5957)"><path
             d="m 0,0 c -1.731,-1.103 -3.737,-1.927 -6.019,-2.478 -2.282,-0.55 -4.563,-0.826 -6.843,-0.826 -4.012,0 -7.396,0.492 -10.149,1.475 -2.754,0.982 -4.956,2.496 -6.607,4.543 -1.653,2.044 -2.853,4.64 -3.6,7.788 -0.748,3.145 -1.121,6.844 -1.121,11.092 v 29.854 h -8.968 v 7.67 c 5.506,2.28 9.972,5.664 13.394,10.148 3.422,4.484 5.762,10.304 7.02,17.464 h 5.546 V 66.788 H -0.118 V 51.448 H -17.347 V 20.414 c 0,-1.731 0.216,-3.147 0.65,-4.248 0.431,-1.103 1.003,-1.967 1.711,-2.596 0.708,-0.631 1.513,-1.062 2.419,-1.298 0.903,-0.236 1.868,-0.354 2.89,-0.354 1.337,0 2.95,0.236 4.838,0.708 1.889,0.472 3.5,1.257 4.839,2.36 z"
             style="fill:#6e4490;fill-opacity:1;fill-rule:nonzero;stroke:none"
             id="path26"
             inkscape:connector-curvature="0" /></g><path
           d="m 430.425,274.062 h -17.228 v 68.322 h 17.228 z m 0.236,80.122 h -17.7 v 17.7 h 17.7 z"
           style="fill:#6e4490;fill-opacity:1;fill-rule:nonzero;stroke:none"
           id="path28"
           inkscape:connector-curvature="0" /><g
           id="g30"
           transform="translate(508.7773,342.2656)"><path
             d="M 0,0 -25.606,-68.322 H -42.362 L -68.086,0 h 18.644 L -33.984,-45.784 -18.526,0 Z"
             style="fill:#6e4490;fill-opacity:1;fill-rule:nonzero;stroke:none"
             id="path32"
             inkscape:connector-curvature="0" /></g><g
           id="g34"
           transform="translate(554.7949,291.0537)"><path
             d="m 0,0 v 12.626 h -7.788 c -2.359,0 -4.583,-0.159 -6.667,-0.472 -2.085,-0.316 -3.894,-0.846 -5.428,-1.593 -1.534,-0.749 -2.755,-1.711 -3.658,-2.891 -0.905,-1.18 -1.356,-2.596 -1.356,-4.248 0,-2.36 0.923,-4.289 2.772,-5.782 1.848,-1.495 4.229,-2.242 7.14,-2.242 2.516,0 5.014,0.393 7.492,1.18 C -5.015,-2.637 -2.519,-1.496 0,0 M 16.992,-16.992 H 0 v 3.658 c -2.99,-2.047 -6.156,-3.463 -9.499,-4.248 -3.344,-0.786 -6.784,-1.18 -10.324,-1.18 -3.305,0 -6.295,0.492 -8.969,1.475 -2.675,0.982 -4.996,2.398 -6.962,4.248 -1.967,1.847 -3.48,4.03 -4.543,6.549 -1.061,2.516 -1.593,5.31 -1.593,8.378 0,3.853 0.845,7.216 2.537,10.089 1.691,2.871 3.992,5.269 6.904,7.198 2.909,1.927 6.312,3.363 10.206,4.307 3.894,0.944 8.083,1.416 12.567,1.416 h 9.794 c 0,4.012 -1.298,7.198 -3.893,9.558 -2.597,2.36 -6.334,3.54 -11.21,3.54 -2.361,0 -4.8,-0.433 -7.317,-1.298 -2.518,-0.867 -5.035,-2.44 -7.552,-4.72 l -10.03,10.148 c 3.617,3.46 7.807,6.136 12.568,8.024 4.758,1.888 9.655,2.832 14.69,2.832 4.721,0 8.922,-0.749 12.607,-2.242 3.685,-1.495 6.661,-3.422 8.926,-5.782 2.969,-2.991 5.058,-6.333 6.269,-10.03 1.21,-3.699 1.816,-8.419 1.816,-14.16 z"
             style="fill:#6e4490;fill-opacity:1;fill-rule:nonzero;stroke:none"
             id="path36"
             inkscape:connector-curvature="0" /></g><g
           id="g38"
           transform="translate(115.147,214.1855)"><path
             d="m 0,0 c 0,2.049 -0.39,3.936 -1.168,5.658 -0.781,1.722 -1.846,3.177 -3.199,4.366 -1.352,1.188 -2.911,2.111 -4.674,2.768 -1.764,0.655 -3.67,0.984 -5.719,0.984 -2.789,0.081 -5.535,0.102 -8.241,0.061 -2.706,-0.042 -5.454,-0.061 -8.241,-0.061 v -27.183 h 14.268 c 2.049,0 4.099,0.246 6.15,0.738 2.049,0.492 3.874,1.292 5.473,2.398 1.6,1.107 2.891,2.501 3.875,4.183 C -0.492,-4.409 0,-2.379 0,0 m -3.69,40.713 c 0,2.377 -0.452,4.428 -1.353,6.15 -0.903,1.722 -2.112,3.156 -3.628,4.305 -1.519,1.147 -3.26,2.008 -5.228,2.583 -1.968,0.573 -4.018,0.861 -6.15,0.861 h -11.193 v -27.06 c 2.049,-0.083 3.894,-0.123 5.535,-0.123 h 5.658 c 2.132,0 4.182,0.246 6.15,0.738 1.968,0.492 3.709,1.27 5.228,2.337 1.516,1.065 2.725,2.439 3.628,4.121 0.901,1.679 1.353,3.709 1.353,6.088 m 23.493,-41.82 c 0,-4.101 -0.842,-7.893 -2.521,-11.377 -1.682,-3.487 -3.917,-6.479 -6.704,-8.979 -2.788,-2.503 -6.008,-4.45 -9.656,-5.843 -3.649,-1.395 -7.483,-2.091 -11.5,-2.091 l -39.729,0.123 v 98.4 h 35.424 c 4.263,0 8.22,-0.636 11.869,-1.906 3.648,-1.273 6.827,-3.118 9.533,-5.535 2.706,-2.42 4.816,-5.372 6.335,-8.856 1.516,-3.487 2.275,-7.402 2.275,-11.747 0,-3.69 -0.82,-7.257 -2.46,-10.701 -1.641,-3.444 -3.813,-6.356 -6.519,-8.733 2.131,-1.066 4.038,-2.419 5.72,-4.059 1.679,-1.641 3.115,-3.465 4.304,-5.473 1.188,-2.011 2.092,-4.142 2.706,-6.396 0.616,-2.257 0.923,-4.532 0.923,-6.827"
             style="fill:#6e4490;fill-opacity:1;fill-rule:nonzero;stroke:none"
             id="path40"
             inkscape:connector-curvature="0" /></g><g
           id="g42"
           transform="translate(208.9951,184.9116)"><path
             d="m 0,0 h -17.712 v 5.412 c -1.149,-1.149 -2.481,-2.153 -3.997,-3.014 -1.519,-0.86 -3.118,-1.599 -4.797,-2.213 -1.682,-0.616 -3.404,-1.086 -5.166,-1.415 -1.765,-0.327 -3.425,-0.492 -4.982,-0.492 -3.609,0 -7.073,0.575 -10.393,1.722 -3.322,1.147 -6.254,2.91 -8.795,5.289 -2.543,2.378 -4.572,5.452 -6.089,9.225 -1.518,3.771 -2.275,8.241 -2.275,13.407 v 43.173 h 17.712 V 28.782 c 0,-2.543 0.388,-4.778 1.168,-6.703 0.779,-1.928 1.803,-3.527 3.076,-4.797 1.27,-1.273 2.746,-2.215 4.428,-2.829 1.679,-0.616 3.423,-0.923 5.227,-0.923 5.739,0 10.701,1.968 14.883,5.904 v 51.66 H 0 Z"
             style="fill:#6e4490;fill-opacity:1;fill-rule:nonzero;stroke:none"
             id="path44"
             inkscape:connector-curvature="0" /></g><g
           id="g46"
           transform="translate(367.0781,186.9116)"><path
             d="m 0,0 h -17.712 v 42.435 c 0,2.541 -0.392,4.776 -1.175,6.704 -0.782,1.925 -1.831,3.524 -3.149,4.797 -1.319,1.27 -2.821,2.213 -4.509,2.829 -1.687,0.614 -3.438,0.922 -5.249,0.922 -2.718,0 -5.394,-0.473 -8.029,-1.415 -2.635,-0.943 -5.023,-2.44 -7.163,-4.489 V 0 h -17.712 v 71.094 h 17.712 l 0.123,-5.289 c 1.064,1.065 2.377,2.049 3.935,2.952 1.557,0.901 3.177,1.66 4.859,2.276 1.68,0.614 3.402,1.085 5.166,1.414 1.762,0.327 3.464,0.492 5.104,0.492 3.608,0 7.073,-0.575 10.394,-1.722 3.321,-1.149 6.273,-2.912 8.856,-5.289 2.583,-2.379 4.653,-5.454 6.212,-9.225 C -0.78,52.93 0,48.462 0,43.296 Z"
             style="fill:#6e4490;fill-opacity:1;fill-rule:nonzero;stroke:none"
             id="path48"
             inkscape:connector-curvature="0" /></g><g
           id="g50"
           transform="translate(420.5811,204.6235)"><path
             d="m 0,0 v 13.161 h -8.118 c -2.46,0 -4.778,-0.165 -6.949,-0.492 -2.174,-0.329 -4.06,-0.882 -5.659,-1.66 -1.599,-0.78 -2.871,-1.784 -3.813,-3.014 -0.943,-1.23 -1.414,-2.706 -1.414,-4.428 0,-2.46 0.963,-4.47 2.891,-6.027 1.925,-1.559 4.406,-2.337 7.441,-2.337 2.623,0 5.227,0.409 7.81,1.23 C -5.228,-2.748 -2.626,-1.559 0,0 M 17.712,-17.712 H 0 v 3.813 c -3.117,-2.133 -6.417,-3.609 -9.901,-4.428 -3.487,-0.819 -7.074,-1.23 -10.763,-1.23 -3.444,0 -6.562,0.513 -9.349,1.537 -2.788,1.025 -5.208,2.501 -7.257,4.429 -2.05,1.925 -3.627,4.201 -4.735,6.826 -1.106,2.623 -1.66,5.535 -1.66,8.733 0,4.017 0.88,7.522 2.644,10.516 1.762,2.993 4.161,5.494 7.196,7.504 3.032,2.008 6.58,3.505 10.639,4.489 4.059,0.984 8.426,1.476 13.1,1.476 H 0.123 c 0,4.182 -1.353,7.503 -4.06,9.963 -2.706,2.46 -6.601,3.69 -11.684,3.69 -2.46,0 -5.003,-0.452 -7.626,-1.353 -2.625,-0.903 -5.249,-2.543 -7.872,-4.92 l -10.455,10.578 c 3.77,3.608 8.137,6.396 13.099,8.364 4.96,1.968 10.065,2.952 15.314,2.952 4.92,0 9.3,-0.78 13.141,-2.337 3.84,-1.558 6.943,-3.567 9.304,-6.027 3.095,-3.117 5.272,-6.602 6.534,-10.455 1.261,-3.855 1.894,-8.775 1.894,-14.76 z"
             style="fill:#6e4490;fill-opacity:1;fill-rule:nonzero;stroke:none"
             id="path52"
             inkscape:connector-curvature="0" /></g><g
           id="g54"
           transform="translate(219.7764,274.7422)"><path
             d="M 0,0 26.474,70.638 H 43.798 L 70.394,0 H 51.117 L 35.136,47.336 19.153,0 Z"
             style="fill:#bfcf3d;fill-opacity:1;fill-rule:nonzero;stroke:none"
             id="path56"
             inkscape:connector-curvature="0" /></g><g
           id="g58"
           transform="translate(264.9897,239.8271)"><path
             d="m 0,0 c -3.979,2.467 -8.197,3.57 -12.655,3.306 -4.456,-0.265 -8.376,-1.866 -11.751,-4.8 -3.315,-2.881 -5.398,-6.498 -6.249,-10.848 -0.853,-4.352 -0.331,-8.669 1.558,-12.95 z m 18.385,6.93 c 0.748,-0.861 1.475,-1.79 2.182,-2.791 0.709,-1 1.43,-2.047 2.16,-3.134 l -42.539,-36.978 c 1.826,-1.109 3.783,-1.965 5.874,-2.573 2.089,-0.608 4.22,-0.857 6.389,-0.75 2.17,0.108 4.322,0.577 6.455,1.408 2.133,0.829 4.182,2.099 6.147,3.808 2.395,2.081 4.428,4.577 6.102,7.486 1.674,2.91 2.693,5.762 3.062,8.563 l 15.664,-1.094 c -1.283,-5.964 -3.195,-11.049 -5.736,-15.252 -2.545,-4.205 -5.779,-8.014 -9.707,-11.429 -3.99,-3.469 -8.361,-5.974 -13.108,-7.514 -4.75,-1.542 -9.491,-2.164 -14.226,-1.859 -4.735,0.301 -9.321,1.516 -13.755,3.641 -4.434,2.128 -8.333,5.124 -11.695,8.991 -3.361,3.867 -5.786,8.145 -7.275,12.831 -1.487,4.688 -2.035,9.41 -1.646,14.169 0.39,4.757 1.663,9.366 3.822,13.828 2.155,4.462 5.197,8.4 9.127,11.815 3.743,3.254 7.934,5.685 12.574,7.293 4.637,1.607 9.344,2.328 14.117,2.169 4.773,-0.162 9.408,-1.278 13.905,-3.35 4.494,-2.074 8.533,-5.166 12.107,-9.278"
             style="fill:#bfcf3d;fill-opacity:1;fill-rule:nonzero;stroke:none"
             id="path60"
             inkscape:connector-curvature="0" /></g><path
           d="m 225,94 h -70 v 22 h 70 z"
           style="fill:#bfcf3d;fill-opacity:1;fill-rule:nonzero;stroke:none"
           id="path62"
           inkscape:connector-curvature="0" /><path
           d="m 510,185 h -67 v 21 h 67 z"
           style="fill:#bfcf3d;fill-opacity:1;fill-rule:nonzero;stroke:none"
           id="path64"
           inkscape:connector-curvature="0" /><g
           id="g66"
           transform="translate(289.8154,168.0059)"><path
             d="M 0,0 -26.69,-71.217 H -44.156 L -70.97,0 h 19.433 L -35.423,-47.724 -19.311,0 Z"
             style="fill:#bfcf3d;fill-opacity:1;fill-rule:nonzero;stroke:none"
             id="path68"
             inkscape:connector-curvature="0" /></g><g
           id="g70"
           transform="translate(352.667,139.4697)"><path
             d="m 0,0 c -1.396,4.509 -3.875,8.137 -7.441,10.885 -3.568,2.747 -7.607,4.121 -12.116,4.121 -4.428,0 -8.406,-1.374 -11.931,-4.121 C -35.015,8.137 -37.475,4.509 -38.868,0 Z m 18.573,-6.888 c 0,-1.15 -0.061,-2.337 -0.184,-3.567 -0.123,-1.23 -0.268,-2.503 -0.431,-3.813 h -56.826 c 0.655,-2.051 1.578,-3.998 2.767,-5.843 1.188,-1.845 2.645,-3.444 4.367,-4.797 1.722,-1.353 3.669,-2.419 5.842,-3.197 2.172,-0.781 4.571,-1.169 7.196,-1.169 3.198,0 6.396,0.553 9.594,1.66 3.198,1.107 5.862,2.603 7.995,4.49 l 11.193,-11.193 c -4.92,-3.69 -9.738,-6.294 -14.452,-7.81 -4.717,-1.517 -9.698,-2.276 -14.946,-2.276 -5.331,0 -10.312,0.984 -14.944,2.952 -4.634,1.968 -8.652,4.632 -12.054,7.995 -3.403,3.361 -6.088,7.318 -8.056,11.87 -1.968,4.55 -2.952,9.409 -2.952,14.575 0,5.166 0.984,10.024 2.952,14.575 1.968,4.551 4.674,8.507 8.118,11.87 3.444,3.361 7.461,6.027 12.054,7.995 4.591,1.968 9.511,2.952 14.76,2.952 5,0 9.797,-0.923 14.391,-2.768 4.591,-1.844 8.65,-4.408 12.177,-7.687 3.524,-3.281 6.313,-7.196 8.364,-11.747 2.049,-4.551 3.075,-9.575 3.075,-15.067"
             style="fill:#6e4490;fill-opacity:1;fill-rule:nonzero;stroke:none"
             id="path72"
             inkscape:connector-curvature="0" /></g><g
           id="g74"
           transform="translate(447.0078,96.9116)"><path
             d="m 0,0 h -17.712 v 42.435 c 0,2.541 -0.392,4.776 -1.175,6.704 -0.782,1.925 -1.831,3.524 -3.149,4.797 -1.319,1.27 -2.821,2.213 -4.509,2.829 -1.687,0.614 -3.438,0.922 -5.249,0.922 -2.718,0 -5.394,-0.473 -8.029,-1.415 -2.635,-0.943 -5.023,-2.44 -7.163,-4.489 V 0 h -17.712 v 71.094 h 17.712 l 0.123,-5.289 c 1.064,1.065 2.377,2.049 3.935,2.952 1.557,0.901 3.177,1.66 4.859,2.276 1.68,0.614 3.402,1.085 5.166,1.414 1.762,0.327 3.464,0.492 5.104,0.492 3.608,0 7.073,-0.575 10.394,-1.722 3.321,-1.149 6.273,-2.912 8.856,-5.289 2.583,-2.379 4.653,-5.454 6.212,-9.225 C -0.78,52.93 0,48.462 0,43.296 Z"
             style="fill:#6e4490;fill-opacity:1;fill-rule:nonzero;stroke:none"
             id="path76"
             inkscape:connector-curvature="0" /></g><g
           id="g78"
           transform="translate(500.1416,98.5107)"><path
             d="m 0,0 c -1.805,-1.149 -3.896,-2.008 -6.273,-2.583 -2.379,-0.573 -4.757,-0.861 -7.134,-0.861 -4.182,0 -7.709,0.513 -10.578,1.537 -2.871,1.025 -5.166,2.603 -6.888,4.736 -1.722,2.131 -2.974,4.837 -3.752,8.118 -0.78,3.279 -1.168,7.134 -1.168,11.562 v 31.119 h -9.348 v 7.995 c 5.739,2.377 10.393,5.904 13.96,10.578 3.568,4.674 6.006,10.741 7.319,18.204 h 5.781 V 69.618 H -0.123 V 53.628 H -18.081 V 21.279 c 0,-1.805 0.225,-3.281 0.676,-4.428 0.45,-1.149 1.046,-2.051 1.784,-2.706 0.737,-0.657 1.577,-1.107 2.521,-1.353 0.942,-0.246 1.947,-0.369 3.014,-0.369 1.393,0 3.074,0.246 5.043,0.738 1.968,0.492 3.647,1.311 5.043,2.46 z"
             style="fill:#6e4490;fill-opacity:1;fill-rule:nonzero;stroke:none"
             id="path80"
             inkscape:connector-curvature="0" /></g><g
           id="g82"
           transform="translate(573.5723,96.9116)"><path
             d="m 0,0 h -17.713 v 5.412 c -1.148,-1.149 -2.48,-2.153 -3.997,-3.014 -1.519,-0.86 -3.117,-1.599 -4.797,-2.213 -1.681,-0.616 -3.403,-1.086 -5.166,-1.415 -1.765,-0.327 -3.425,-0.492 -4.981,-0.492 -3.61,0 -7.073,0.575 -10.394,1.722 -3.321,1.147 -6.254,2.91 -8.795,5.289 -2.542,2.378 -4.572,5.452 -6.088,9.225 -1.518,3.771 -2.275,8.241 -2.275,13.407 v 43.173 h 17.712 V 28.782 c 0,-2.543 0.388,-4.778 1.168,-6.703 0.778,-1.928 1.803,-3.527 3.075,-4.797 1.271,-1.273 2.746,-2.215 4.428,-2.829 1.679,-0.616 3.423,-0.923 5.227,-0.923 5.74,0 10.701,1.968 14.883,5.904 v 51.66 H 0 Z"
             style="fill:#6e4490;fill-opacity:1;fill-rule:nonzero;stroke:none"
             id="path84"
             inkscape:connector-curvature="0" /></g><g
           id="g86"
           transform="translate(639.375,160.6255)"><path
             d="m 0,0 -9.471,-15.006 c -1.721,1.885 -3.629,3.546 -5.719,4.982 -2.091,1.433 -4.204,2.152 -6.334,2.152 -1.15,0 -2.399,-0.267 -3.752,-0.799 -1.353,-0.535 -2.625,-1.415 -3.813,-2.645 -1.19,-1.23 -2.195,-2.85 -3.014,-4.858 -0.821,-2.011 -1.23,-4.49 -1.23,-7.442 V -63.714 H -51.045 V 7.38 h 17.712 v -7.626 c 2.132,3.033 4.489,5.37 7.072,7.011 2.583,1.639 5.474,2.46 8.672,2.46 3.115,0 6.169,-0.842 9.163,-2.521 C -5.433,5.022 -2.625,2.787 0,0"
             style="fill:#6e4490;fill-opacity:1;fill-rule:nonzero;stroke:none"
             id="path88"
             inkscape:connector-curvature="0" /></g><g
           id="g90"
           transform="translate(685.6221,114.6235)"><path
             d="m 0,0 v 13.161 h -8.118 c -2.46,0 -4.778,-0.165 -6.95,-0.492 -2.173,-0.329 -4.059,-0.882 -5.658,-1.66 -1.599,-0.78 -2.872,-1.784 -3.813,-3.014 -0.943,-1.23 -1.414,-2.706 -1.414,-4.428 0,-2.46 0.963,-4.47 2.891,-6.027 1.924,-1.559 4.406,-2.337 7.441,-2.337 2.623,0 5.227,0.409 7.81,1.23 C -5.228,-2.748 -2.626,-1.559 0,0 M 17.712,-17.712 H 0 v 3.813 c -3.118,-2.133 -6.418,-3.609 -9.902,-4.428 -3.487,-0.819 -7.073,-1.23 -10.762,-1.23 -3.444,0 -6.562,0.513 -9.349,1.537 -2.788,1.025 -5.208,2.501 -7.257,4.429 -2.05,1.925 -3.628,4.201 -4.735,6.826 -1.107,2.623 -1.66,5.535 -1.66,8.733 0,4.017 0.88,7.522 2.644,10.516 1.762,2.993 4.161,5.494 7.196,7.504 3.032,2.008 6.58,3.505 10.639,4.489 4.059,0.984 8.425,1.476 13.099,1.476 H 0.122 c 0,4.182 -1.352,7.503 -4.059,9.963 -2.706,2.46 -6.601,3.69 -11.684,3.69 -2.46,0 -5.003,-0.452 -7.626,-1.353 -2.626,-0.903 -5.249,-2.543 -7.872,-4.92 l -10.455,10.578 c 3.77,3.608 8.136,6.396 13.099,8.364 4.96,1.968 10.065,2.952 15.314,2.952 4.92,0 9.3,-0.78 13.141,-2.337 3.84,-1.558 6.942,-3.567 9.304,-6.027 3.094,-3.117 5.272,-6.602 6.534,-10.455 1.261,-3.855 1.894,-8.775 1.894,-14.76 z"
             style="fill:#6e4490;fill-opacity:1;fill-rule:nonzero;stroke:none"
             id="path92"
             inkscape:connector-curvature="0" /></g><g
           id="g96"
           transform="translate(77.9399,44.2339)" /><g
           id="g100"
           transform="translate(88.2275,47.4897)" /><g
           id="g104"
           transform="translate(101.8833,52.5542)" /><g
           id="g108"
           transform="translate(114.9292,47.4897)" /><g
           id="g112"
           transform="translate(140.0483,44.2339)" /><g
           id="g116"
           transform="translate(152.7549,50.7681)" /><g
           id="g120"
           transform="translate(167.6323,47.8965)" /><g
           id="g124"
           transform="translate(186.0137,50.7231)" /><g
           id="g128"
           transform="translate(198.7207,47.4897)" /><g
           id="g132"
           transform="translate(213.8687,55.9458)" /><g
           id="g136"
           transform="translate(222.3022,44.5278)" /><g
           id="g140"
           transform="translate(234.3076,52.0571)" /><g
           id="g144"
           transform="translate(255.7197,47.7383)" /><g
           id="g148"
           transform="translate(271.7949,52.0571)" /><g
           id="g152"
           transform="translate(289.8828,44.3018)" /><g
           id="g156"
           transform="translate(298.8145,47.4897)" /><g
           id="g160"
           transform="translate(318.9814,44.5278)" /><g
           id="g164"
           transform="translate(330.2871,55.9458)" /><g
           id="g168"
           transform="translate(338.7881,47.4897)" /><g
           id="g172"
           transform="translate(356.4453,44.2339)" /><g
           id="g176"
           transform="translate(368.5195,47.8965)" /><g
           id="g180"
           transform="translate(377.834,60.0156)" /><g
           id="g184"
           transform="translate(388.6191,50.7681)" /><g
           id="g188"
           transform="translate(403.2939,55.9458)" /><g
           id="g192"
           transform="translate(423.8008,44.2339)" /><g
           id="g196"
           transform="translate(433.6133,47.4897)" /><g
           id="g200"
           transform="translate(451.1582,46.2012)" /><g
           id="g206"
           transform="translate(469.1777,63.2939)" /><g
           id="g210"
           transform="translate(486.5195,44.2339)" /><g
           id="g214"
           transform="translate(504.9697,47.7383)" /><g
           id="g218"
           transform="translate(521.0449,52.0571)" /><g
           id="g222"
           transform="translate(545.5088,44.2339)" /><g
           id="g226"
           transform="translate(559.5723,44.2339)" /><g
           id="g230"
           transform="translate(572.3691,52.0571)" /><g
           id="g234"
           transform="translate(587.4053,47.8965)" /><g
           id="g238"
           transform="translate(596.6973,44.5278)" /><g
           id="g242"
           transform="translate(608.0029,55.9458)" /><g
           id="g246"
           transform="translate(616.5039,47.4897)" /><g
           id="g250"
           transform="translate(641.1709,46.2012)" /><g
           id="g256"
           transform="translate(660.6826,44.2339)" /><g
           id="g260"
           transform="translate(672.2363,47.7383)" /><g
           id="g264"
           transform="translate(685.5762,47.4897)" /><g
           id="g268"
           transform="translate(700.1816,47.7383)" /></g></g></g></svg>