<?xml version="1.0" standalone="no"?>
<!DOCTYPE svg PUBLIC "-//W3C//DTD SVG 20010904//EN"
 "http://www.w3.org/TR/2001/REC-SVG-20010904/DTD/svg10.dtd">
<svg version="1.0" xmlns="http://www.w3.org/2000/svg"
 width="2084.000000pt" height="594.000000pt" viewBox="0 0 2084.000000 594.000000"
 preserveAspectRatio="xMidYMid meet">

<g transform="translate(0.000000,594.000000) scale(0.100000,-0.100000)"
fill="#000000" stroke="none">
<path d="M3055 4805 c-11 -2 -46 -7 -77 -10 -52 -6 -61 -10 -89 -46 -29 -37
-31 -42 -24 -99 7 -58 9 -61 48 -82 40 -20 47 -20 197 -9 609 46 1213 -181
1655 -624 366 -366 582 -831 624 -1348 6 -70 11 -137 11 -148 0 -18 8 -19 120
-19 l120 0 0 78 c0 91 -23 296 -45 402 -180 873 -829 1574 -1685 1821 -198 57
-370 81 -615 84 -121 2 -229 2 -240 0z"/>
<path d="M3065 4413 c-400 -47 -718 -170 -1014 -391 -96 -72 -275 -245 -354
-342 -197 -245 -340 -548 -402 -855 -19 -96 -45 -319 -45 -391 0 -11 27 -14
129 -14 l129 0 7 83 c36 452 191 812 480 1115 319 335 733 522 1190 539 307
11 584 -49 854 -187 105 -54 124 -60 177 -60 l59 1 33 47 c35 53 37 66 21 122
-10 32 -22 44 -83 79 -236 134 -504 221 -778 250 -90 10 -334 13 -403 4z"/>
<path d="M8770 3260 l0 -820 110 0 110 0 0 820 0 820 -110 0 -110 0 0 -820z"/>
<path d="M9900 3367 l0 -712 108 -108 107 -107 312 0 311 0 106 113 106 112 0
350 0 350 -113 113 -112 112 -205 0 -205 0 -97 -97 -98 -98 0 343 0 342 -110
0 -110 0 0 -713z m772 -24 l48 -47 0 -280 0 -280 -52 -53 -52 -53 -195 0 -195
0 -53 52 -53 52 0 206 0 205 122 122 123 123 130 0 129 0 48 -47z"/>
<path d="M14300 3960 l0 -100 240 0 240 0 0 -710 0 -710 115 0 115 0 0 710 0
710 245 0 245 0 0 100 0 100 -600 0 -600 0 0 -100z"/>
<path d="M5930 3245 l0 -805 488 0 487 0 128 128 127 127 0 550 0 550 -128
128 -127 127 -488 0 -487 0 0 -805z m927 533 l73 -72 0 -461 0 -461 -73 -72
-72 -72 -313 0 -312 0 0 605 0 605 312 0 313 0 72 -72z"/>
<path d="M9342 3997 c-40 -41 -42 -46 -42 -103 0 -57 2 -62 43 -102 41 -41 45
-42 107 -42 62 0 66 1 107 42 41 40 43 45 43 102 0 57 -2 62 -42 103 -41 42
-44 43 -108 43 -64 0 -67 -1 -108 -43z"/>
<path d="M3298 3985 c-36 -25 -38 -28 -38 -83 0 -56 2 -59 40 -89 33 -24 54
-32 109 -37 404 -40 802 -298 1016 -658 97 -162 169 -384 180 -553 4 -44 8
-95 11 -112 l5 -33 116 0 116 0 -7 93 c-17 231 -69 424 -167 622 -78 158 -171
286 -299 415 -58 58 -148 135 -200 172 -222 157 -525 270 -765 285 -74 4 -83
3 -117 -22z"/>
<path d="M3065 3629 c-298 -43 -598 -228 -778 -481 -135 -190 -217 -434 -217
-649 l0 -79 118 0 119 0 6 98 c28 414 311 755 717 863 110 30 318 32 425 6 59
-15 77 -16 118 -5 54 14 58 17 79 73 15 39 14 42 -11 84 -30 51 -53 61 -191
85 -100 17 -284 19 -385 5z"/>
<path d="M7547 3482 l-107 -107 0 -360 0 -360 108 -108 107 -107 305 0 305 0
108 108 107 107 0 78 0 77 -110 0 -110 0 0 -41 c0 -36 -6 -46 -52 -89 l-53
-49 -195 -1 -196 0 -52 53 -52 53 0 102 0 102 410 0 410 0 0 218 0 217 -108
108 -107 107 -305 0 -305 0 -108 -108z m660 -134 l53 -52 0 -88 0 -88 -300 0
-300 0 0 87 0 87 52 53 52 53 195 0 195 0 53 -52z"/>
<path d="M9340 3015 l0 -575 110 0 110 0 0 575 0 575 -110 0 -110 0 0 -575z"/>
<path d="M11322 3477 l-112 -112 0 -355 0 -355 108 -108 107 -107 310 0 310 0
108 108 107 107 0 78 0 77 -110 0 -110 0 0 -38 c0 -32 -8 -45 -53 -90 l-53
-52 -200 0 -200 0 -47 48 -47 48 0 107 0 107 410 0 410 0 0 213 0 212 -113
113 -112 112 -300 0 -300 0 -113 -113z m661 -128 l57 -51 0 -89 0 -89 -300 0
-300 0 0 87 0 87 52 53 52 53 191 0 191 0 57 -51z"/>
<path d="M12540 3015 l0 -575 110 0 110 0 0 358 0 357 118 118 117 117 128 0
127 0 0 100 0 100 -157 0 -158 0 -92 -92 -93 -93 0 93 0 92 -105 0 -105 0 0
-575z"/>
<path d="M13462 3477 l-112 -112 0 -73 0 -72 115 0 115 0 0 43 c0 38 5 48 48
90 l48 47 178 0 177 0 55 -47 54 -48 0 -92 0 -93 -303 0 -302 0 -98 -98 -97
-97 0 -145 0 -145 98 -98 97 -97 214 0 213 0 91 85 92 85 3 -85 3 -85 104 0
105 0 0 463 0 462 -113 113 -112 112 -280 0 -280 0 -113 -113z m678 -591 l0
-53 -110 -107 -110 -106 -132 0 -132 0 -43 42 -43 42 0 80 c0 79 1 81 37 118
l37 38 248 0 248 0 0 -54z"/>
<path d="M15500 3127 l0 -462 113 -113 112 -112 180 0 180 0 107 107 108 108
0 -108 0 -107 110 0 110 0 0 575 0 575 -115 0 -115 0 0 -343 0 -342 -133 -133
-132 -132 -100 0 -101 0 -52 53 -52 53 0 422 0 422 -110 0 -110 0 0 -463z"/>
<path d="M16830 3015 l0 -575 110 0 110 0 0 363 0 362 118 118 117 117 128 0
127 0 0 95 0 95 -157 0 -158 0 -92 -92 -93 -93 0 93 0 92 -105 0 -105 0 0
-575z"/>
<path d="M17752 3477 l-112 -112 0 -73 0 -72 115 0 115 0 0 43 c0 38 5 48 53
95 l53 52 175 0 175 0 52 -53 52 -53 0 -92 0 -92 -303 0 -302 0 -93 -93 -92
-92 0 -150 0 -150 98 -98 97 -97 210 0 210 0 92 92 93 93 0 -93 0 -92 105 0
105 0 0 468 0 467 -108 108 -107 107 -285 0 -285 0 -113 -113z m678 -585 l0
-59 -109 -101 -109 -102 -138 0 -138 0 -38 37 c-38 37 -38 38 -38 117 l0 80
42 43 42 43 243 0 243 0 0 -58z"/>
<path d="M3150 3263 c-297 -39 -528 -227 -627 -508 -26 -74 -28 -91 -28 -235
1 -141 3 -162 28 -235 82 -245 286 -433 537 -496 32 -8 106 -14 180 -14 102 0
139 5 200 24 244 75 427 251 506 486 38 114 45 284 15 407 -64 269 -279 489
-541 552 -70 17 -213 27 -270 19z m203 -258 c171 -44 302 -166 358 -332 30
-90 31 -213 1 -298 l-21 -60 54 -125 c29 -69 53 -126 52 -127 -1 0 -62 11
-135 27 l-134 28 -47 -29 c-25 -16 -86 -39 -135 -51 -80 -20 -96 -21 -170 -10
-249 36 -435 246 -436 492 0 318 310 564 613 485z"/>
<path d="M15391 2046 c-8 -9 -10 -121 -9 -392 l3 -379 29 -3 c16 -2 32 2 37
10 5 7 9 180 9 385 0 358 -1 373 -19 383 -26 13 -36 13 -50 -4z"/>
<path d="M6000 1645 l0 -376 33 3 32 3 0 370 0 370 -32 3 -33 3 0 -376z"/>
<path d="M13782 1648 l3 -373 30 0 30 0 3 148 3 147 102 0 c197 1 256 54 257
227 0 92 -9 125 -48 167 -46 48 -77 56 -237 56 l-145 0 2 -372z m288 287 c43
-22 64 -69 64 -140 0 -121 -42 -155 -189 -155 l-95 0 0 155 0 155 95 0 c66 0
105 -5 125 -15z"/>
<path d="M11145 1966 c-13 -19 -14 -29 -6 -45 25 -45 91 -33 91 17 0 54 -56
72 -85 28z"/>
<path d="M11810 1957 c-34 -20 -56 -41 -58 -54 -5 -35 26 -35 91 -1 50 27 63
38 65 61 3 23 0 27 -20 27 -13 0 -48 -15 -78 -33z"/>
<path d="M15918 1959 c-63 -35 -77 -55 -53 -78 15 -15 22 -13 83 20 55 29 67
40 67 60 0 35 -30 34 -97 -2z"/>
<path d="M16396 1974 c-3 -9 -6 -146 -6 -305 0 -322 3 -343 62 -379 24 -15 50
-20 101 -20 l67 0 0 29 c0 33 -14 41 -71 41 -26 0 -46 7 -59 20 -18 18 -20 33
-20 180 l0 160 76 0 75 0 -3 28 c-3 26 -5 27 -75 30 l-73 3 0 99 c0 118 -4
130 -40 130 -16 0 -30 -7 -34 -16z"/>
<path d="M17006 1975 c-9 -9 -16 -25 -16 -35 0 -26 43 -53 69 -45 24 7 38 51
24 74 -14 22 -57 25 -77 6z"/>
<path d="M6644 1751 c-23 -10 -45 -25 -50 -32 -6 -10 -10 -7 -14 11 -5 20 -12
25 -35 25 l-30 0 0 -240 0 -240 33 -3 32 -3 0 148 c0 81 5 165 10 185 21 75
101 109 170 73 52 -27 60 -57 60 -227 0 -84 4 -159 9 -166 5 -8 21 -12 37 -10
l29 3 3 172 c2 156 1 177 -17 212 -25 48 -71 87 -119 101 -51 14 -71 12 -118
-9z"/>
<path d="M7474 1760 c-17 -5 -39 -19 -49 -30 l-18 -20 -11 22 c-13 27 -41 35
-61 18 -12 -10 -15 -52 -15 -230 0 -120 3 -225 6 -234 4 -9 18 -16 34 -16 16
0 30 7 34 16 3 9 6 83 6 165 0 111 4 157 14 178 43 82 161 81 209 -2 7 -14 14
-83 17 -187 l5 -165 33 -3 32 -3 0 182 c0 176 -1 184 -25 225 -14 23 -40 52
-59 63 -39 25 -108 34 -152 21z"/>
<path d="M8260 1758 c-50 -14 -97 -53 -121 -100 -18 -35 -20 -55 -17 -158 3
-115 4 -119 34 -157 94 -116 253 -110 328 11 26 41 31 60 34 134 5 115 -9 166
-62 218 -57 58 -119 74 -196 52z m124 -89 c43 -34 56 -70 56 -154 0 -92 -18
-136 -67 -166 -89 -55 -183 24 -183 154 0 84 10 116 47 153 28 28 41 34 77 34
29 0 52 -7 70 -21z"/>
<path d="M9734 1759 c-54 -13 -80 -40 -64 -68 13 -25 26 -26 76 -5 44 19 97
13 127 -13 24 -22 47 -73 47 -106 0 -24 -3 -25 -92 -29 -147 -7 -198 -43 -198
-140 0 -55 17 -87 59 -115 57 -39 154 -28 212 24 15 12 17 11 23 -12 5 -20 13
-25 36 -25 40 0 43 17 38 208 -5 178 -19 222 -81 261 -40 24 -126 34 -183 20z
m186 -308 c0 -66 -61 -121 -135 -121 -45 0 -75 29 -75 73 0 56 52 84 163 86
l47 1 0 -39z"/>
<path d="M10532 1759 c-53 -13 -107 -65 -121 -116 -18 -65 -13 -232 8 -278 33
-72 93 -105 189 -105 102 0 185 60 137 100 -14 11 -23 10 -61 -8 -52 -26 -91
-28 -139 -8 -52 22 -65 58 -65 177 l0 101 34 34 c30 30 40 34 85 34 28 0 66
-7 85 -16 44 -22 68 -13 64 23 -6 53 -118 85 -216 62z"/>
<path d="M11766 1756 c-57 -21 -87 -47 -113 -96 -20 -37 -23 -58 -23 -144 0
-77 5 -111 19 -141 65 -140 255 -155 346 -26 29 42 30 45 30 165 0 118 -1 124
-28 163 -51 74 -152 108 -231 79z m145 -105 l39 -39 0 -93 c0 -76 -4 -100 -20
-126 -21 -34 -66 -63 -100 -63 -34 0 -79 29 -100 63 -28 46 -29 199 -1 241 26
39 57 55 105 56 32 0 45 -7 77 -39z"/>
<path d="M12595 1763 c-11 -3 -34 -16 -52 -29 l-32 -24 -3 23 c-2 17 -10 22
-33 22 l-30 0 -3 -243 -2 -243 32 3 33 3 5 173 5 174 37 34 c30 27 46 34 79
34 35 0 48 -6 80 -39 l39 -39 0 -158 c0 -88 4 -165 9 -172 5 -8 21 -12 37 -10
l29 3 3 165 c2 132 -1 173 -13 207 -33 86 -131 138 -220 116z"/>
<path d="M14696 1755 c-21 -7 -51 -26 -67 -41 -49 -47 -59 -81 -59 -204 0
-123 7 -145 62 -197 40 -39 76 -53 133 -53 57 0 93 14 133 53 56 53 62 74 62
202 0 130 -7 153 -64 203 -57 50 -128 63 -200 37z m139 -87 c15 -12 34 -36 41
-54 18 -43 18 -155 0 -197 -47 -111 -175 -111 -222 0 -18 42 -18 154 0 197 31
73 122 101 181 54z"/>
<path d="M17620 1759 c-100 -31 -129 -87 -130 -246 0 -61 5 -124 11 -140 14
-38 57 -83 96 -99 71 -31 220 -8 244 37 11 21 -3 59 -22 59 -5 0 -27 -9 -49
-20 -46 -24 -88 -25 -135 -6 -55 24 -70 57 -70 161 0 104 15 149 56 170 37 20
119 19 147 -1 12 -8 32 -14 45 -12 17 2 22 10 22 33 0 25 -7 33 -37 48 -46 22
-131 30 -178 16z"/>
<path d="M18317 1759 c-58 -14 -77 -27 -77 -54 0 -35 16 -40 75 -19 97 32 162
-6 173 -101 l5 -45 -74 0 c-92 0 -141 -13 -180 -48 -59 -54 -46 -169 23 -212
26 -17 45 -20 95 -18 52 3 68 9 103 36 l40 33 0 -31 c0 -29 2 -31 33 -28 l32
3 3 163 c3 186 -6 232 -52 278 -48 48 -115 63 -199 43z m173 -313 c0 -38 -5
-48 -40 -80 -33 -29 -48 -36 -82 -36 -104 0 -121 123 -21 146 16 3 33 7 38 9
6 2 31 4 58 4 l47 1 0 -44z"/>
<path d="M8881 1742 c-7 -13 12 -74 78 -247 l88 -230 32 0 32 0 85 220 c46
121 83 231 82 245 -3 21 -8 25 -33 25 -30 0 -31 -2 -95 -172 -36 -95 -67 -174
-70 -177 -3 -3 -28 57 -54 132 -77 212 -81 222 -110 222 -14 0 -30 -8 -35 -18z"/>
<path d="M11155 1748 c-3 -7 -4 -117 -3 -243 l3 -230 30 0 30 0 0 240 0 240
-28 3 c-16 2 -29 -2 -32 -10z"/>
<path d="M15902 1748 c-14 -14 -17 -444 -3 -466 5 -8 21 -12 37 -10 l29 3 3
229 c2 160 -1 233 -9 242 -14 17 -41 18 -57 2z"/>
<path d="M17012 1748 c-14 -14 -17 -444 -3 -466 5 -8 21 -12 37 -10 l29 3 0
240 0 240 -25 3 c-14 2 -31 -3 -38 -10z"/>
</g>
</svg>
