<svg xmlns="http://www.w3.org/2000/svg" width="11.782" height="22.714" viewBox="0 0 11.782 22.714">
    <g id="prefix__Group_3184" data-name="Group 3184" transform="translate(-406.229 -3203.67)">
        <g id="prefix__Group_3183" data-name="Group 3183">
            <path id="prefix__Path_24992" fill="#003ce9" d="M413.9 3207.658a1.81 1.81 0 0 1 1.4-.483 8.07 8.07 0 0 1 2.113.3l.6-3.245a11.427 11.427 0 0 0-3.832-.556 6.264 6.264 0 0 0-3.194.686 3.532 3.532 0 0 0-1.717 1.752 8.427 8.427 0 0 0-.479 3.274v1.276h-2.56v3.706h2.56v12.02h4.669v-12.02h3.392v-3.706h-3.392v-1.2a2.544 2.544 0 0 1 .44-1.804z" data-name="Path 24992"/>
        </g>
    </g>
</svg>
