<svg xmlns="http://www.w3.org/2000/svg" width="27.729" height="22.714" viewBox="0 0 27.729 22.714">
    <g id="prefix__Group_3186" data-name="Group 3186" transform="translate(-434.151 -3203.999)">
        <g id="prefix__Group_3185" data-name="Group 3185">
            <path id="prefix__Path_24993" fill="#003ce9" fill-rule="evenodd" d="M434.151 3224.215a12.385 12.385 0 0 0 5.964-1.024 10.727 10.727 0 0 0 2.392-1.44 5.746 5.746 0 0 1-2.474-.619 5.616 5.616 0 0 1-2.728-3.052c-.122-.3-.122-.3.214-.283a4.639 4.639 0 0 0 2.1-.132 6.043 6.043 0 0 1-1.348-.517 5.755 5.755 0 0 1-3.093-4.879c-.021-.253.051-.283.284-.172a5.5 5.5 0 0 0 2.241.608c-.365-.324-.68-.587-.963-.872a5.855 5.855 0 0 1-.9-6.479c.143-.284.194-.284.387-.061a16.206 16.206 0 0 0 9.978 5.567c.406.081.851.081 1.268.173.283.04.313-.092.273-.3a5.727 5.727 0 0 1 9.573-5.151.638.638 0 0 0 .629.151 10.672 10.672 0 0 0 3.022-1.185.569.569 0 0 0 .243-.153 5.641 5.641 0 0 1-2.413 3.164 11.894 11.894 0 0 0 3.083-.8c.02.132-.082.213-.142.324a11.714 11.714 0 0 1-2.373 2.424.48.48 0 0 0-.213.457 16.639 16.639 0 0 1-3.945 11.174 15.4 15.4 0 0 1-9.552 5.355 16.236 16.236 0 0 1-11.378-2.21.2.2 0 0 0-.129-.068z" data-name="Path 24993"/>
        </g>
    </g>
</svg>
